<svg width="1000" height="1000" viewBox="0 0 1000 1000" fill="none" xmlns="http://www.w3.org/2000/svg">
<g filter="url(#filter0_i_1234_690)">
<path d="M579.811 137.176L201.376 594.819C200.487 595.894 200 597.246 200 598.642V847.456C200 853.088 207.058 855.617 210.635 851.266L791.435 144.81C794.653 140.895 791.868 135 786.8 135H584.435C582.646 135 580.951 135.798 579.811 137.176Z" fill="#1F82BF"/>
<path d="M370.031 135H206C202.686 135 200 137.686 200 141V506.648C200 512.177 206.844 514.763 210.501 510.616L374.532 324.548C375.498 323.452 376.031 322.041 376.031 320.58V141C376.031 137.686 373.344 135 370.031 135Z" fill="#0FBEF9"/>
<path d="M797.09 821.97L574.812 824.732C573.064 824.754 571.394 824.012 570.238 822.702L425.409 658.533C423.449 656.31 423.405 652.989 425.306 650.715L535.144 519.369C537.504 516.547 541.825 516.494 544.253 519.257L801.523 812.01C804.906 815.86 802.216 821.906 797.09 821.97Z" fill="#0FBEF9"/>
</g>
<defs>
<filter id="filter0_i_1234_690" x="200" y="135" width="603.027" height="738.468" filterUnits="userSpaceOnUse" color-interpolation-filters="sRGB">
<feFlood flood-opacity="0" result="BackgroundImageFix"/>
<feBlend mode="normal" in="SourceGraphic" in2="BackgroundImageFix" result="shape"/>
<feColorMatrix in="SourceAlpha" type="matrix" values="0 0 0 0 0 0 0 0 0 0 0 0 0 0 0 0 0 0 127 0" result="hardAlpha"/>
<feOffset dy="40"/>
<feGaussianBlur stdDeviation="10"/>
<feComposite in2="hardAlpha" operator="arithmetic" k2="-1" k3="1"/>
<feColorMatrix type="matrix" values="0 0 0 0 0.00503478 0 0 0 0 0.297083 0 0 0 0 0.477032 0 0 0 0.4 0"/>
<feBlend mode="normal" in2="shape" result="effect1_innerShadow_1234_690"/>
</filter>
</defs>
</svg>
